<?xml version="1.0" standalone="no"?>
<!DOCTYPE svg PUBLIC "-//W3C//DTD SVG 20010904//EN"
 "http://www.w3.org/TR/2001/REC-SVG-20010904/DTD/svg10.dtd">
<svg version="1.0" xmlns="http://www.w3.org/2000/svg"
 width="417.000000pt" height="417.000000pt" viewBox="0 0 417.000000 417.000000"
 preserveAspectRatio="xMidYMid meet">
<metadata>
Created by potrace 1.14, written by Peter Selinger 2001-2017
</metadata>
<g transform="translate(0.000000,417.000000) scale(0.100000,-0.100000)"
fill="#000000" stroke="none">
<path d="M1895 4049 c-256 -26 -404 -63 -621 -154 -58 -24 -131 -60 -163 -80
-32 -19 -62 -35 -66 -35 -11 0 -189 -126 -258 -183 -84 -69 -210 -197 -278
-282 -65 -82 -149 -200 -149 -209 0 -4 -12 -25 -27 -49 -91 -144 -206 -440
-226 -582 -3 -22 -13 -84 -22 -138 -9 -54 -17 -158 -19 -230 -12 -554 190
-1064 573 -1447 129 -129 170 -164 286 -244 117 -81 203 -129 358 -200 68 -31
277 -96 372 -115 227 -46 452 -51 735 -16 162 20 417 106 599 201 207 109 330
200 501 373 245 246 419 549 508 881 11 41 24 95 27 120 4 25 9 54 11 64 38
205 38 438 -1 681 -61 376 -258 761 -537 1045 -179 183 -324 289 -558 405
-108 54 -256 109 -374 140 -189 48 -490 73 -671 54z"/>
</g>
</svg>
